<?xml version="1.0" encoding="iso-8859-1"?>
<!-- Generator: Adobe Illustrator 19.0.0, SVG Export Plug-In . SVG Version: 6.00 Build 0)  -->
<svg version="1.1" id="Layer_1" xmlns="http://www.w3.org/2000/svg" xmlns:xlink="http://www.w3.org/1999/xlink" x="0px" y="0px"
	 viewBox="0 0 512 512" style="enable-background:new 0 0 512 512;" xml:space="preserve">
<circle style="fill:#EDEDED;" cx="256" cy="256" r="256"/>
<g>
	<path style="fill:#E21B1B;" d="M141.472,212.6h18.92l34.28,60.216V212.6h16.824v86.368h-18.048l-35.16-61.28v61.28h-16.824V212.6
		H141.472z"/>
	<path style="fill:#E21B1B;" d="M292.288,227.888h-45.704v18.344h41.952v15h-41.952v22.2H294.4v15.528h-65.448V212.6h63.336V227.888
		z"/>
	<path style="fill:#E21B1B;" d="M321.472,272.312c0.552,3.944,1.656,6.888,3.288,8.84c2.992,3.552,8.12,5.328,15.376,5.328
		c4.352,0,7.872-0.472,10.592-1.408c5.144-1.792,7.72-5.136,7.72-10.016c0-2.848-1.264-5.056-3.784-6.624
		c-2.52-1.512-6.52-2.864-11.992-4.04l-9.352-2.056c-9.184-2.024-15.504-4.232-18.936-6.616c-5.832-3.984-8.736-10.216-8.736-18.696
		c0-7.736,2.84-14.16,8.536-19.272s14.064-7.68,25.096-7.68c9.208,0,17.072,2.416,23.576,7.24c6.496,4.824,9.912,11.824,10.224,21
		h-17.344c-0.32-5.192-2.64-8.88-6.96-11.072c-2.888-1.448-6.472-2.168-10.76-2.168c-4.768,0-8.568,0.936-11.416,2.816
		s-4.256,4.496-4.256,7.848c0,3.088,1.4,5.392,4.2,6.912c1.8,1.016,5.624,2.208,11.472,3.576l15.16,3.568
		c6.648,1.568,11.624,3.656,14.944,6.272c5.144,4.064,7.72,9.944,7.72,17.64c0,7.888-3.048,14.44-9.152,19.656
		c-6.104,5.208-14.72,7.824-25.848,7.824c-11.376,0-20.312-2.568-26.832-7.704c-6.512-5.144-9.776-12.192-9.776-21.176h17.24
		V272.312z"/>
</g>
<g>
</g>
<g>
</g>
<g>
</g>
<g>
</g>
<g>
</g>
<g>
</g>
<g>
</g>
<g>
</g>
<g>
</g>
<g>
</g>
<g>
</g>
<g>
</g>
<g>
</g>
<g>
</g>
<g>
</g>
</svg>
